<svg width="37" height="35" viewBox="0 0 37 35" fill="none" xmlns="http://www.w3.org/2000/svg">
<path d="M18.5 19.0417C20.1355 19.0417 21.704 18.392 22.8605 17.2355C24.017 16.079 24.6667 14.5105 24.6667 12.875C24.6667 11.2395 24.017 9.67099 22.8605 8.51452C21.704 7.35804 20.1355 6.70834 18.5 6.70834C16.8645 6.70834 15.296 7.35804 14.1395 8.51452C12.983 9.67099 12.3333 11.2395 12.3333 12.875C12.3333 14.5105 12.983 16.079 14.1395 17.2355C15.296 18.392 16.8645 19.0417 18.5 19.0417ZM18.5 19.0417C16.0467 19.0417 13.694 20.0162 11.9593 21.7509C10.2245 23.4856 9.24999 25.8384 9.24999 28.2917V32.9167H27.75V28.2917C27.75 25.8384 26.7754 23.4856 25.0407 21.7509C23.306 20.0162 20.9532 19.0417 18.5 19.0417ZM20.0417 6.70834C20.6645 4.14301 23.1481 2.08334 26.2083 2.08334C29.5568 2.08334 32.3442 4.84293 32.375 8.25001C32.3442 11.6571 29.5568 14.4167 26.2083 14.4167M26.2083 14.4167H24.6667M26.2083 14.4167C31.2773 14.4167 35.4583 18.5576 35.4583 23.6667V26.75M16.9583 6.70834C16.3355 4.14301 13.8519 2.08334 10.7917 2.08334C7.44316 2.08334 4.65582 4.84293 4.62499 8.25001C4.65582 11.6571 7.44316 14.4167 10.7917 14.4167M10.7917 14.4167H12.3333M10.7917 14.4167C5.72266 14.4167 1.54166 18.5576 1.54166 23.6667V26.75" stroke="white" stroke-width="3.08333"/>
</svg>
