<svg width="227" height="97" viewBox="0 0 227 97" fill="none" xmlns="http://www.w3.org/2000/svg">
<path d="M4.056 26.892H14.304V30H0.234V0.725999H4.056V26.892ZM39.3629 17.61C39.3629 18.338 39.3209 19.108 39.2369 19.92H20.8409C20.9809 22.188 21.7509 23.966 23.1509 25.254C24.5789 26.514 26.3009 27.144 28.3169 27.144C29.9689 27.144 31.3409 26.766 32.4329 26.01C33.5529 25.226 34.3369 24.19 34.7849 22.902H38.9009C38.2849 25.114 37.0529 26.92 35.2049 28.32C33.3569 29.692 31.0609 30.378 28.3169 30.378C26.1329 30.378 24.1729 29.888 22.4369 28.908C20.7289 27.928 19.3849 26.542 18.4049 24.75C17.4249 22.93 16.9349 20.83 16.9349 18.45C16.9349 16.07 17.4109 13.984 18.3629 12.192C19.3149 10.4 20.6449 9.028 22.3529 8.076C24.0889 7.096 26.0769 6.606 28.3169 6.606C30.5009 6.606 32.4329 7.082 34.1129 8.034C35.7929 8.986 37.0809 10.302 37.9769 11.982C38.9009 13.634 39.3629 15.51 39.3629 17.61ZM35.4149 16.812C35.4149 15.356 35.0929 14.11 34.4489 13.074C33.8049 12.01 32.9229 11.212 31.8029 10.68C30.7109 10.12 29.4929 9.84 28.1489 9.84C26.2169 9.84 24.5649 10.456 23.1929 11.688C21.8489 12.92 21.0789 14.628 20.8829 16.812H35.4149ZM42.9798 18.408C42.9798 16.056 43.4558 13.998 44.4078 12.234C45.3598 10.442 46.6618 9.056 48.3138 8.076C49.9938 7.096 51.8558 6.606 53.8998 6.606C55.9158 6.606 57.6658 7.04 59.1498 7.908C60.6338 8.776 61.7398 9.868 62.4678 11.184V6.984H66.3318V30H62.4678V25.716C61.7118 27.06 60.5778 28.18 59.0658 29.076C57.5818 29.944 55.8458 30.378 53.8578 30.378C51.8138 30.378 49.9658 29.874 48.3138 28.866C46.6618 27.858 45.3598 26.444 44.4078 24.624C43.4558 22.804 42.9798 20.732 42.9798 18.408ZM62.4678 18.45C62.4678 16.714 62.1178 15.202 61.4178 13.914C60.7178 12.626 59.7658 11.646 58.5618 10.974C57.3858 10.274 56.0838 9.924 54.6558 9.924C53.2278 9.924 51.9258 10.26 50.7498 10.932C49.5738 11.604 48.6358 12.584 47.9358 13.872C47.2358 15.16 46.8858 16.672 46.8858 18.408C46.8858 20.172 47.2358 21.712 47.9358 23.028C48.6358 24.316 49.5738 25.31 50.7498 26.01C51.9258 26.682 53.2278 27.018 54.6558 27.018C56.0838 27.018 57.3858 26.682 58.5618 26.01C59.7658 25.31 60.7178 24.316 61.4178 23.028C62.1178 21.712 62.4678 20.186 62.4678 18.45ZM76.6126 10.722C77.2846 9.406 78.2366 8.384 79.4686 7.656C80.7286 6.928 82.2546 6.564 84.0466 6.564V10.512H83.0386C78.7546 10.512 76.6126 12.836 76.6126 17.484V30H72.7906V6.984H76.6126V10.722ZM99.6726 6.564C102.473 6.564 104.741 7.418 106.477 9.126C108.213 10.806 109.081 13.242 109.081 16.434V30H105.301V16.98C105.301 14.684 104.727 12.934 103.579 11.73C102.431 10.498 100.863 9.882 98.8746 9.882C96.8586 9.882 95.2486 10.512 94.0446 11.772C92.8686 13.032 92.2806 14.866 92.2806 17.274V30H88.4586V6.984H92.2806V10.26C93.0366 9.084 94.0586 8.174 95.3466 7.53C96.6626 6.886 98.1046 6.564 99.6726 6.564ZM156.215 0.935999V30H152.393V8.328L142.733 30H140.045L130.343 8.286V30H126.521V0.935999H130.637L141.389 24.96L152.141 0.935999H156.215ZM172.735 30.378C170.579 30.378 168.619 29.888 166.855 28.908C165.119 27.928 163.747 26.542 162.739 24.75C161.759 22.93 161.269 20.83 161.269 18.45C161.269 16.098 161.773 14.026 162.781 12.234C163.817 10.414 165.217 9.028 166.981 8.076C168.745 7.096 170.719 6.606 172.903 6.606C175.087 6.606 177.061 7.096 178.825 8.076C180.589 9.028 181.975 10.4 182.983 12.192C184.019 13.984 184.537 16.07 184.537 18.45C184.537 20.83 184.005 22.93 182.941 24.75C181.905 26.542 180.491 27.928 178.699 28.908C176.907 29.888 174.919 30.378 172.735 30.378ZM172.735 27.018C174.107 27.018 175.395 26.696 176.599 26.052C177.803 25.408 178.769 24.442 179.497 23.154C180.253 21.866 180.631 20.298 180.631 18.45C180.631 16.602 180.267 15.034 179.539 13.746C178.811 12.458 177.859 11.506 176.683 10.89C175.507 10.246 174.233 9.924 172.861 9.924C171.461 9.924 170.173 10.246 168.997 10.89C167.849 11.506 166.925 12.458 166.225 13.746C165.525 15.034 165.175 16.602 165.175 18.45C165.175 20.326 165.511 21.908 166.183 23.196C166.883 24.484 167.807 25.45 168.955 26.094C170.103 26.71 171.363 27.018 172.735 27.018ZM193.384 10.722C194.056 9.406 195.008 8.384 196.24 7.656C197.5 6.928 199.026 6.564 200.818 6.564V10.512H199.81C195.526 10.512 193.384 12.836 193.384 17.484V30H189.562V6.984H193.384V10.722ZM226.23 17.61C226.23 18.338 226.188 19.108 226.104 19.92H207.708C207.848 22.188 208.618 23.966 210.018 25.254C211.446 26.514 213.168 27.144 215.184 27.144C216.836 27.144 218.208 26.766 219.3 26.01C220.42 25.226 221.204 24.19 221.652 22.902H225.768C225.152 25.114 223.92 26.92 222.072 28.32C220.224 29.692 217.928 30.378 215.184 30.378C213 30.378 211.04 29.888 209.304 28.908C207.596 27.928 206.252 26.542 205.272 24.75C204.292 22.93 203.802 20.83 203.802 18.45C203.802 16.07 204.278 13.984 205.23 12.192C206.182 10.4 207.512 9.028 209.22 8.076C210.956 7.096 212.944 6.606 215.184 6.606C217.368 6.606 219.3 7.082 220.98 8.034C222.66 8.986 223.948 10.302 224.844 11.982C225.768 13.634 226.23 15.51 226.23 17.61ZM222.282 16.812C222.282 15.356 221.96 14.11 221.316 13.074C220.672 12.01 219.79 11.212 218.67 10.68C217.578 10.12 216.36 9.84 215.016 9.84C213.084 9.84 211.432 10.456 210.06 11.688C208.716 12.92 207.946 14.628 207.75 16.812H222.282Z" fill="white"/>
<path fill-rule="evenodd" clip-rule="evenodd" d="M83.4971 64.317C83.6543 64.1001 83.841 63.928 84.0466 63.8106C84.2522 63.6932 84.4726 63.6328 84.6951 63.6328C84.9177 63.6328 85.1381 63.6932 85.3437 63.8106C85.5492 63.928 85.736 64.1001 85.8931 64.317L105 90.6218L124.108 64.317C124.425 63.8797 124.856 63.634 125.306 63.634C125.755 63.634 126.186 63.8797 126.504 64.317C126.822 64.7544 127 65.3475 127 65.966C127 66.5845 126.822 67.1777 126.504 67.615L106.198 95.5642C106.041 95.7811 105.855 95.9531 105.649 96.0706C105.443 96.188 105.223 96.2484 105 96.2484C104.778 96.2484 104.557 96.188 104.352 96.0706C104.146 95.9531 103.96 95.7811 103.802 95.5642L83.4971 67.615C83.3395 67.3987 83.2145 67.1416 83.1292 66.8587C83.0439 66.5757 83 66.2724 83 65.966C83 65.6597 83.0439 65.3563 83.1292 65.0733C83.2145 64.7904 83.3395 64.5334 83.4971 64.317Z" fill="white"/>
<path fill-rule="evenodd" clip-rule="evenodd" d="M83.4971 45.6843C83.6543 45.4674 83.841 45.2953 84.0466 45.1779C84.2522 45.0604 84.4726 45 84.6951 45C84.9177 45 85.1381 45.0604 85.3437 45.1779C85.5492 45.2953 85.736 45.4674 85.8931 45.6843L105 71.9889L124.108 45.6843C124.265 45.4677 124.452 45.2959 124.657 45.1787C124.863 45.0615 125.083 45.0012 125.306 45.0012C125.528 45.0012 125.749 45.0615 125.954 45.1787C126.16 45.2959 126.346 45.4677 126.504 45.6843C126.661 45.9008 126.786 46.1579 126.871 46.4408C126.956 46.7238 127 47.027 127 47.3332C127 47.6395 126.956 47.9427 126.871 48.2257C126.786 48.5086 126.661 48.7657 126.504 48.9822L106.198 76.9312C106.041 77.1481 105.855 77.3202 105.649 77.4376C105.443 77.555 105.223 77.6155 105 77.6155C104.778 77.6155 104.557 77.555 104.352 77.4376C104.146 77.3202 103.96 77.1481 103.802 76.9312L83.4971 48.9822C83.3395 48.7659 83.2145 48.5089 83.1292 48.2259C83.0439 47.9429 83 47.6396 83 47.3332C83 47.0269 83.0439 46.7235 83.1292 46.4406C83.2145 46.1576 83.3395 45.9006 83.4971 45.6843Z" fill="white"/>
</svg>
