<svg width="114" height="114" viewBox="0 0 114 114" fill="none" xmlns="http://www.w3.org/2000/svg">
<circle cx="57" cy="57" r="54.5" fill="#52AF3F" stroke="white" stroke-width="5"/>
<path d="M79.3348 74.2947C78.438 74.2988 77.5536 74.5052 76.7476 74.8987L68.09 66.2411H61.2143V70.2679H66.4209L73.9007 77.7476C73.5069 78.5536 73.2998 79.4379 73.2947 80.3348C73.2947 81.5295 73.6489 82.6973 74.3126 83.6906C74.9763 84.6839 75.9197 85.4581 77.0234 85.9152C78.1271 86.3724 79.3415 86.492 80.5132 86.259C81.6849 86.0259 82.7611 85.4506 83.6059 84.6059C84.4506 83.7612 85.0259 82.6849 85.2589 81.5132C85.492 80.3415 85.3724 79.1271 84.9152 78.0234C84.4581 76.9197 83.6839 75.9763 82.6906 75.3126C81.6973 74.6489 80.5295 74.2947 79.3348 74.2947ZM79.3348 82.3482C78.9366 82.3482 78.5473 82.2301 78.2162 82.0089C77.8851 81.7877 77.6271 81.4732 77.4747 81.1053C77.3223 80.7374 77.2824 80.3326 77.3601 79.942C77.4378 79.5515 77.6296 79.1927 77.9111 78.9112C78.1927 78.6296 78.5515 78.4378 78.942 78.3601C79.3326 78.2824 79.7374 78.3223 80.1053 78.4747C80.4732 78.6271 80.7877 78.8852 81.0089 79.2163C81.2301 79.5474 81.3482 79.9366 81.3482 80.3348C81.3482 80.8688 81.1361 81.3809 80.7585 81.7585C80.3809 82.1361 79.8688 82.3482 79.3348 82.3482Z" fill="white"/>
<path d="M79.3348 52.1473C78.0897 52.151 76.8762 52.5401 75.861 53.2611C74.8459 53.9821 74.0788 54.9997 73.6651 56.1741H61.2143V60.2009H73.6651C74.036 61.2422 74.686 62.1615 75.5441 62.8583C76.4021 63.5552 77.4352 64.0028 78.5304 64.1522C79.6256 64.3016 80.7408 64.1472 81.7542 63.7056C82.7676 63.2641 83.6401 62.5526 84.2764 61.6487C84.9127 60.7449 85.2883 59.6835 85.3622 58.5806C85.4361 57.4777 85.2055 56.3757 84.6954 55.3951C84.1854 54.4144 83.4156 53.5928 82.4702 53.02C81.5248 52.4473 80.4402 52.1454 79.3348 52.1473ZM79.3348 60.2009C78.9366 60.2009 78.5473 60.0828 78.2162 59.8616C77.8851 59.6404 77.6271 59.3259 77.4747 58.958C77.3223 58.5901 77.2824 58.1853 77.3601 57.7947C77.4378 57.4042 77.6296 57.0454 77.9111 56.7638C78.1927 56.4823 78.5515 56.2905 78.942 56.2128C79.3326 56.1351 79.7374 56.175 80.1053 56.3274C80.4732 56.4798 80.7877 56.7378 81.0089 57.0689C81.2301 57.4 81.3482 57.7893 81.3482 58.1875C81.3482 58.7215 81.1361 59.2336 80.7585 59.6112C80.3809 59.9888 79.8688 60.2009 79.3348 60.2009Z" fill="white"/>
<path d="M79.3348 30C77.7334 30.0016 76.198 30.6385 75.0655 31.7709C73.9331 32.9033 73.2963 34.4387 73.2947 36.0402C73.3015 37.0047 73.5419 37.9532 73.9953 38.8046L66.4411 46.1071H61.2143V50.1339H68.0679L76.9268 41.573C77.7497 41.9318 78.6423 42.1027 79.5396 42.073C80.4369 42.0434 81.3163 41.8141 82.1138 41.4017C82.9112 40.9894 83.6067 40.4044 84.1496 39.6893C84.6924 38.9743 85.069 38.1471 85.2519 37.2682C85.4348 36.3892 85.4194 35.4806 85.2068 34.6083C84.9942 33.7361 84.5898 32.9222 84.023 32.226C83.4562 31.5298 82.7413 30.9687 81.9303 30.5836C81.1193 30.1986 80.2326 29.9992 79.3348 30ZM79.3348 38.0536C78.9366 38.0536 78.5473 37.9355 78.2162 37.7143C77.8851 37.493 77.6271 37.1786 77.4747 36.8107C77.3223 36.4428 77.2824 36.0379 77.3601 35.6474C77.4378 35.2568 77.6296 34.8981 77.9111 34.6165C78.1927 34.3349 78.5515 34.1432 78.942 34.0655C79.3326 33.9878 79.7374 34.0277 80.1053 34.18C80.4732 34.3324 80.7877 34.5905 81.0089 34.9216C81.2301 35.2527 81.3482 35.642 81.3482 36.0402C81.3482 36.5742 81.1361 37.0863 80.7585 37.4639C80.3809 37.8414 79.8688 38.0536 79.3348 38.0536Z" fill="white"/>
<path d="M61.2143 38.0536H65.2411V34.0268H61.2143C60.0669 34.0306 58.9337 34.2811 57.8916 34.7611C56.8494 35.2412 55.9227 35.9397 55.1741 36.8093C54.4255 35.9397 53.4988 35.2412 52.4566 34.7611C51.4145 34.2811 50.2813 34.0306 49.1339 34.0268H47.1205C42.3163 34.0321 37.7104 35.943 34.3133 39.3401C30.9162 42.7372 29.0053 47.3431 29 52.1473V64.2277C29.0053 69.0319 30.9162 73.6378 34.3133 77.035C37.7104 80.4321 42.3163 82.3429 47.1205 82.3482H49.1339C50.2813 82.3444 51.4145 82.0939 52.4566 81.6139C53.4988 81.1338 54.4255 80.4353 55.1741 79.5657C55.9227 80.4353 56.8494 81.1338 57.8916 81.6139C58.9337 82.0939 60.0669 82.3444 61.2143 82.3482H65.2411V78.3214H61.2143C60.1466 78.3204 59.123 77.8958 58.3681 77.1408C57.6132 76.3859 57.1886 75.3623 57.1875 74.2946V42.0804C57.1886 41.0127 57.6132 39.9891 58.3681 39.2342C59.123 38.4792 60.1466 38.0546 61.2143 38.0536ZM49.1339 78.3214H47.1205C43.7349 78.3154 40.4644 77.0916 37.9064 74.8737C35.3484 72.6558 33.6736 69.5917 33.1879 66.2411H37.0536V62.2143H33.0268V54.1607H39.067C40.6684 54.1591 42.2038 53.5222 43.3363 52.3898C44.4687 51.2574 45.1055 49.722 45.1071 48.1205V44.0938H41.0804V48.1205C41.0804 48.6545 40.8682 49.1666 40.4906 49.5442C40.1131 49.9218 39.6009 50.1339 39.067 50.1339H33.1879C33.6736 46.7833 35.3484 43.7192 37.9064 41.5013C40.4644 39.2834 43.7349 38.0596 47.1205 38.0536H49.1339C50.2016 38.0546 51.2252 38.4792 51.9801 39.2342C52.7351 39.9891 53.1596 41.0127 53.1607 42.0804V50.1339H49.1339V54.1607H53.1607V62.2143H49.1339C47.5325 62.2159 45.9971 62.8528 44.8646 63.9852C43.7322 65.1176 43.0953 66.653 43.0938 68.2545V72.2813H47.1205V68.2545C47.1205 67.7205 47.3327 67.2084 47.7102 66.8308C48.0878 66.4532 48.5999 66.2411 49.1339 66.2411H53.1607V74.2946C53.1596 75.3623 52.7351 76.3859 51.9801 77.1408C51.2252 77.8958 50.2016 78.3204 49.1339 78.3214Z" fill="white"/>
</svg>
