<svg width="114" height="114" viewBox="0 0 114 114" fill="none" xmlns="http://www.w3.org/2000/svg">
<circle cx="57" cy="57" r="54.5" fill="#52AF3F" stroke="white" stroke-width="5"/>
<g clip-path="url(#clip0_0_1)">
<path d="M67.5 30.5C68.4283 30.5 69.3185 30.8687 69.9749 31.5251C70.6313 32.1815 71 33.0717 71 34V76C71 76.9283 70.6313 77.8185 69.9749 78.4749C69.3185 79.1312 68.4283 79.5 67.5 79.5H46.5C45.5717 79.5 44.6815 79.1312 44.0251 78.4749C43.3687 77.8185 43 76.9283 43 76V34C43 33.0717 43.3687 32.1815 44.0251 31.5251C44.6815 30.8687 45.5717 30.5 46.5 30.5H67.5ZM46.5 27C44.6435 27 42.863 27.7375 41.5503 29.0503C40.2375 30.363 39.5 32.1435 39.5 34V76C39.5 77.8565 40.2375 79.637 41.5503 80.9497C42.863 82.2625 44.6435 83 46.5 83H67.5C69.3565 83 71.137 82.2625 72.4497 80.9497C73.7625 79.637 74.5 77.8565 74.5 76V34C74.5 32.1435 73.7625 30.363 72.4497 29.0503C71.137 27.7375 69.3565 27 67.5 27H46.5Z" fill="white"/>
<path d="M57 76C57.9283 76 58.8185 75.6313 59.4749 74.9749C60.1313 74.3185 60.5 73.4283 60.5 72.5C60.5 71.5717 60.1313 70.6815 59.4749 70.0251C58.8185 69.3687 57.9283 69 57 69C56.0717 69 55.1815 69.3687 54.5251 70.0251C53.8687 70.6815 53.5 71.5717 53.5 72.5C53.5 73.4283 53.8687 74.3185 54.5251 74.9749C55.1815 75.6313 56.0717 76 57 76Z" fill="white"/>
</g>
<defs>
<clipPath id="clip0_0_1">
<rect width="56" height="56" fill="white" transform="translate(29 27)"/>
</clipPath>
</defs>
</svg>
