<svg width="114" height="114" viewBox="0 0 114 114" fill="none" xmlns="http://www.w3.org/2000/svg">
<circle cx="57" cy="57" r="54.5" fill="#52AF3F" stroke="white" stroke-width="5"/>
<path d="M71.2 64H64.8C64.3582 64 64 64.4029 64 64.9V72.1C64 72.5971 64.3582 73 64.8 73H71.2C71.6418 73 72 72.5971 72 72.1V64.9C72 64.4029 71.6418 64 71.2 64Z" fill="white"/>
<path d="M63.125 57H57.875C57.3918 57 57 57.3918 57 57.875V63.125C57 63.6082 57.3918 64 57.875 64H63.125C63.6082 64 64 63.6082 64 63.125V57.875C64 57.3918 63.6082 57 63.125 57Z" fill="white"/>
<path d="M78.125 73H72.875C72.3918 73 72 73.3918 72 73.875V79.125C72 79.6082 72.3918 80 72.875 80H78.125C78.6082 80 79 79.6082 79 79.125V73.875C79 73.3918 78.6082 73 78.125 73Z" fill="white"/>
<path d="M78.1667 57H74.8333C74.3731 57 74 57.3731 74 57.8333V61.1667C74 61.6269 74.3731 62 74.8333 62H78.1667C78.6269 62 79 61.6269 79 61.1667V57.8333C79 57.3731 78.6269 57 78.1667 57Z" fill="white"/>
<path d="M61.1667 75H57.8333C57.3731 75 57 75.3731 57 75.8333V79.1667C57 79.6269 57.3731 80 57.8333 80H61.1667C61.6269 80 62 79.6269 62 79.1667V75.8333C62 75.3731 61.6269 75 61.1667 75Z" fill="white"/>
<path d="M71.2 38H64.8C64.3582 38 64 38.4029 64 38.9V46.1C64 46.5971 64.3582 47 64.8 47H71.2C71.6418 47 72 46.5971 72 46.1V38.9C72 38.4029 71.6418 38 71.2 38Z" fill="white"/>
<path d="M75.3636 33H60.6364C59.7326 33 59 33.7733 59 34.7273V50.2727C59 51.2267 59.7326 52 60.6364 52H75.3636C76.2674 52 77 51.2267 77 50.2727V34.7273C77 33.7733 76.2674 33 75.3636 33Z" stroke="white" stroke-width="2" stroke-linecap="round" stroke-linejoin="round"/>
<path d="M46.2 38H39.8C39.3582 38 39 38.4029 39 38.9V46.1C39 46.5971 39.3582 47 39.8 47H46.2C46.6418 47 47 46.5971 47 46.1V38.9C47 38.4029 46.6418 38 46.2 38Z" fill="white"/>
<path d="M50.3636 33H35.6364C34.7326 33 34 33.7733 34 34.7273V50.2727C34 51.2267 34.7326 52 35.6364 52H50.3636C51.2674 52 52 51.2267 52 50.2727V34.7273C52 33.7733 51.2674 33 50.3636 33Z" stroke="white" stroke-width="2" stroke-linecap="round" stroke-linejoin="round"/>
<path d="M46.2 64H39.8C39.3582 64 39 64.4029 39 64.9V72.1C39 72.5971 39.3582 73 39.8 73H46.2C46.6418 73 47 72.5971 47 72.1V64.9C47 64.4029 46.6418 64 46.2 64Z" fill="white"/>
<path d="M50.3636 59H35.6364C34.7326 59 34 59.7733 34 60.7273V76.2727C34 77.2267 34.7326 78 35.6364 78H50.3636C51.2674 78 52 77.2267 52 76.2727V60.7273C52 59.7733 51.2674 59 50.3636 59Z" stroke="white" stroke-width="2" stroke-linecap="round" stroke-linejoin="round"/>
</svg>
